<?xml version="1.0" encoding="UTF-8"?><svg id="Calque_1" xmlns="http://www.w3.org/2000/svg" viewBox="0 0 663.31 212.6"><defs><style>.cls-1{fill:blue;}</style></defs><rect class="cls-1" x="520.29" y="50.72" width="14.14" height="106.19"/><path class="cls-1" d="M353.81,51.63c-1.56-.4-3.18-.67-4.82-.82-.42-.04-.84-.07-1.27-.08h-86.95v106.19h14.14v-33.85l77.93-13.07c5.62-1.22,10.65-4.01,14.62-7.9,5.56-5.45,9.02-13.03,9.02-21.41,0-14.01-9.67-25.77-22.67-29.06ZM349.92,96.15l-75.01,12.59v-43.88h71.63c8.73,0,15.83,7.1,15.83,15.83,0,7.57-5.34,13.9-12.44,15.45Z"/><path class="cls-1" d="M483.58,51.63c-1.56-.4-3.18-.67-4.82-.82-.42-.04-.84-.07-1.27-.08h-86.95v106.19h14.14v-33.85l77.93-13.07c5.62-1.22,10.65-4.01,14.62-7.9,5.56-5.45,9.02-13.03,9.02-21.41,0-14.01-9.67-25.77-22.67-29.06ZM479.69,96.15l-75.01,12.59v-43.88h71.63c8.73,0,15.83,7.1,15.83,15.83,0,7.57-5.34,13.9-12.44,15.45Z"/><path class="cls-1" d="M33.5,156.01c1.56.4,3.18.67,4.82.82.42.04.84.07,1.27.08h86.95V50.72h-14.14v33.85l-77.93,13.07c-5.62,1.22-10.65,4.01-14.62,7.9-5.56,5.45-9.02,13.03-9.02,21.41,0,14.01,9.67,25.77,22.67,29.06ZM37.39,111.49l75.01-12.59v43.88H40.77c-8.73,0-15.83-7.1-15.83-15.83,0-7.57,5.34-13.9,12.44-15.45Z"/><path class="cls-1" d="M188.17,74.93c-4.52-2.72-9.79-4.32-15.43-4.32-2.53,0-4.98.35-7.33.94-3.05.77-5.91,2.02-8.51,3.65-8.34,5.2-13.95,14.37-14.14,24.86v56.86l56.42,37.21c4.52,2.72,9.79,4.32,15.43,4.32,2.53,0,4.98-.35,7.33-.94,3.05-.77,5.91-2.02,8.51-3.65,8.34-5.2,13.95-14.37,14.14-24.86v-56.86l-56.42-37.21ZM230.45,169.31c-.46,8.32-7.35,14.95-15.78,14.95-.72,0-1.42-.06-2.11-.16-.18-.02-.35-.05-.53-.08-.63-.11-1.25-.24-1.86-.42-.05-.02-.11-.02-.16-.04-.65-.2-1.27-.45-1.88-.73-.16-.07-.31-.15-.46-.22-.53-.26-1.04-.55-1.54-.87-.06-.04-.12-.06-.18-.1l-49.05-32.33v-49.56c.46-8.32,7.35-14.95,15.78-14.95.72,0,1.42.06,2.11.16.18.02.35.05.53.08.63.11,1.25.24,1.86.42.05.02.11.03.16.04.65.2,1.27.45,1.88.73.16.07.31.15.46.22.53.26,1.04.55,1.54.87.06.04,49.23,32.44,49.23,32.44v49.56Z"/><path class="cls-1" d="M550.65,50.72v56.86c.19,10.49,5.8,19.65,14.14,24.86,2.6,1.62,5.46,2.88,8.51,3.65,2.35.59,4.8.94,7.33.94,5.65,0,10.92-1.6,15.43-4.32l56.42-37.21v-56.86c-.19-10.49-5.8-19.65-14.14-24.86-2.6-1.62-5.46-2.88-8.51-3.65-2.35-.59-4.8-.94-7.33-.94-5.65,0-10.92,1.6-15.43,4.32l-56.42,37.21ZM564.79,58.33s49.18-32.4,49.23-32.44c.49-.32,1.01-.6,1.54-.87.15-.08.31-.15.46-.22.61-.28,1.23-.53,1.88-.73.05-.02.11-.03.16-.04.6-.18,1.22-.31,1.86-.42.18-.03.35-.06.53-.08.69-.09,1.39-.16,2.11-.16,8.43,0,15.32,6.63,15.78,14.95v49.56s-49.05,32.33-49.05,32.33c-.06.04-.12.06-.18.1-.49.32-1.01.6-1.54.87-.15.08-.31.15-.46.22-.61.28-1.23.53-1.88.73-.05.02-.11.03-.16.04-.6.18-1.22.31-1.86.42-.18.03-.35.06-.53.08-.69.09-1.39.16-2.11.16-8.43,0-15.32-6.63-15.78-14.95v-49.56Z"/></svg>