<?xml version="1.0" encoding="UTF-8"?><svg id="Calque_1" xmlns="http://www.w3.org/2000/svg" viewBox="0 0 425.2 425.2"><defs><style>.cls-1{fill:blue;}</style></defs><path class="cls-1" d="M50.68,351.34l-6.48,17.24h4.98l.81-2.39h6.7l.81,2.39h5.05l-6.48-17.24h-5.39ZM51.46,361.9l1.09-3.15c.49-1.4.71-2.07.74-2.09h.1s.25.71.74,2.12l1.08,3.13h-3.74Z"/><path class="cls-1" d="M90.99,357.3c0-3.62-2.56-5.96-7-5.96h-6.9v17.24h4.73v-5.39h1.33l3.05,5.39h5.59l-3.87-6.33c2-.86,3.05-2.66,3.05-4.95ZM84.29,359.41h-2.46v-3.79h2.46c1.31,0,1.87.76,1.87,1.92s-.59,1.87-1.87,1.87Z"/><path class="cls-1" d="M114.21,364.46c-2.37,0-3.97-1.8-3.97-4.51s1.5-4.51,3.97-4.51c1.35,0,2.71.42,3.65,1.85l4.68-1.26c-1.16-2.86-4.11-5.05-8.08-5.05-5.17,0-8.96,3.72-8.96,8.92s3.79,9.02,8.96,9.02c3.77,0,6.97-2.12,8.25-5.52l-4.66-1.23c-.57,1.18-1.75,2.29-3.84,2.29Z"/><polygon class="cls-1" points="148.07 357.62 142.23 357.62 142.23 351.34 137.5 351.34 137.5 368.58 142.23 368.58 142.23 362.15 148.07 362.15 148.07 368.58 152.8 368.58 152.8 351.34 148.07 351.34 148.07 357.62"/><rect class="cls-1" x="168.33" y="351.34" width="4.73" height="17.24"/><polygon class="cls-1" points="188.1 355.72 193.17 355.72 193.17 368.58 197.9 368.58 197.9 355.72 202.97 355.72 202.97 351.34 188.1 351.34 188.1 355.72"/><polygon class="cls-1" points="222.74 361.9 228.61 361.9 228.61 357.96 222.74 357.96 222.74 355.72 230.85 355.72 230.85 351.34 218.02 351.34 218.02 368.58 230.99 368.58 230.99 364.19 222.74 364.19 222.74 361.9"/><path class="cls-1" d="M253.89,364.46c-2.37,0-3.97-1.8-3.97-4.51s1.5-4.51,3.97-4.51c1.35,0,2.71.42,3.65,1.85l4.68-1.26c-1.16-2.86-4.11-5.05-8.08-5.05-5.17,0-8.96,3.72-8.96,8.92s3.79,9.02,8.96,9.02c3.77,0,6.97-2.12,8.25-5.52l-4.66-1.23c-.57,1.18-1.75,2.29-3.84,2.29Z"/><polygon class="cls-1" points="276.69 355.72 281.77 355.72 281.77 368.58 286.5 368.58 286.5 355.72 291.57 355.72 291.57 351.34 276.69 351.34 276.69 355.72"/><path class="cls-1" d="M317.18,360.6c0,2.73-1.03,3.87-2.96,3.87s-2.96-1.13-2.96-3.87v-9.26h-4.78v9.43c0,5.27,3.15,8.15,7.68,8.15s7.68-2.88,7.68-8.15v-9.43h-4.68v9.26Z"/><path class="cls-1" d="M351.16,357.3c0-3.62-2.56-5.96-7-5.96h-6.9v17.24h4.73v-5.39h1.33l3.05,5.39h5.59l-3.87-6.33c2-.86,3.05-2.66,3.05-4.95ZM344.46,359.41h-2.46v-3.79h2.46c1.31,0,1.87.76,1.87,1.92s-.59,1.87-1.87,1.87Z"/><polygon class="cls-1" points="371.25 361.9 377.11 361.9 377.11 357.96 371.25 357.96 371.25 355.72 379.35 355.72 379.35 351.34 366.52 351.34 366.52 368.58 379.5 368.58 379.5 364.19 371.25 364.19 371.25 361.9"/><rect class="cls-1" x="208.53" y="214.78" width="14.15" height="106.29"/><path class="cls-1" d="M372.91,57.18c-1.57-.4-3.18-.67-4.83-.82-.42-.04-.84-.07-1.27-.08h-87.04v106.29h14.15v-33.88l78.01-13.09c5.62-1.22,10.66-4.01,14.63-7.9,5.57-5.45,9.03-13.04,9.03-21.43,0-14.02-9.67-25.8-22.69-29.09ZM369.01,101.74l-75.08,12.61v-43.92h71.7c8.73,0,15.84,7.11,15.84,15.84,0,7.57-5.34,13.91-12.46,15.47Z"/><path class="cls-1" d="M159.8,179.67c-1.57-.4-3.18-.67-4.83-.82-.42-.04-.84-.07-1.27-.08h-87.04v106.29h14.15v-33.88l78.01-13.09c5.62-1.22,10.66-4.01,14.63-7.9,5.57-5.45,9.03-13.04,9.03-21.43,0-14.02-9.67-25.8-22.69-29.09ZM155.9,224.23l-75.08,12.61v-43.92h71.7c8.73,0,15.84,7.11,15.84,15.84,0,7.57-5.34,13.91-12.46,15.47Z"/><path class="cls-1" d="M52.29,161.66c1.57.4,3.18.67,4.83.82.42.04.84.07,1.27.08h87.04V56.27h-14.15v33.88l-78.01,13.09c-5.62,1.22-10.66,4.01-14.63,7.9-5.57,5.45-9.03,13.04-9.03,21.43,0,14.02,9.67,25.8,22.69,29.09ZM56.19,117.1l75.08-12.61v43.92H59.57c-8.73,0-15.84-7.11-15.84-15.84,0-7.57,5.34-13.91,12.46-15.47Z"/><path class="cls-1" d="M207.11,80.51c-4.52-2.73-9.8-4.33-15.45-4.33-2.54,0-4.99.35-7.34.94-3.05.77-5.91,2.02-8.51,3.65-8.35,5.21-13.96,14.38-14.15,24.88v56.91l56.47,37.24c4.52,2.73,9.8,4.33,15.45,4.33,2.54,0,4.99-.35,7.34-.94,3.05-.77,5.91-2.02,8.51-3.65,8.35-5.21,13.96-14.38,14.15-24.88v-56.91l-56.47-37.24ZM249.43,174.97c-.46,8.32-7.36,14.96-15.8,14.96-.72,0-1.42-.06-2.11-.16-.18-.02-.36-.05-.53-.08-.63-.11-1.25-.24-1.86-.42-.05-.02-.11-.02-.16-.04-.65-.2-1.27-.45-1.88-.73-.16-.07-.31-.15-.46-.22-.53-.26-1.04-.55-1.54-.87-.06-.04-.12-.06-.18-.1l-49.1-32.36v-49.61c.46-8.32,7.36-14.96,15.8-14.96.72,0,1.42.06,2.11.16.18.02.35.05.53.08.63.11,1.25.24,1.86.42.05.02.11.03.16.04.65.2,1.27.45,1.88.73.16.07.31.15.46.22.53.26,1.04.55,1.54.87.06.04,49.28,32.47,49.28,32.47v49.61Z"/><path class="cls-1" d="M266.47,206.78v56.91c.19,10.5,5.8,19.67,14.15,24.88,2.6,1.62,5.46,2.88,8.51,3.65,2.35.59,4.8.94,7.34.94,5.65,0,10.93-1.6,15.45-4.33l56.47-37.24v-56.91c-.19-10.5-5.8-19.67-14.15-24.88-2.6-1.62-5.46-2.88-8.51-3.65-2.35-.59-4.8-.94-7.34-.94-5.65,0-10.93,1.6-15.45,4.33l-56.47,37.24ZM280.63,214.4s49.22-32.43,49.28-32.47c.49-.32,1.01-.6,1.54-.87.15-.08.31-.15.46-.22.61-.28,1.23-.53,1.88-.73.05-.02.11-.03.16-.04.6-.18,1.23-.31,1.86-.42.18-.03.35-.06.53-.08.69-.09,1.39-.16,2.11-.16,8.44,0,15.34,6.64,15.8,14.96v49.61s-49.1,32.36-49.1,32.36c-.06.04-.12.06-.18.1-.49.32-1.01.6-1.54.87-.15.08-.31.15-.46.22-.61.28-1.23.53-1.88.73-.05.02-.11.03-.16.04-.6.18-1.23.31-1.86.42-.18.03-.35.06-.53.08-.69.09-1.39.16-2.11.16-8.44,0-15.34-6.64-15.8-14.96v-49.61Z"/></svg>