<?xml version="1.0" encoding="UTF-8"?><svg id="Calque_1" xmlns="http://www.w3.org/2000/svg" viewBox="0 0 348.66 348.66"><defs><style>.cls-1{fill:blue;}</style></defs><path class="cls-1" d="M266.61,181.2c-.54,0-1.06.05-1.58.12-.13.02-.27.04-.4.06-.47.08-.94.18-1.39.32-.04.01-.08.02-.12.03-.49.15-.95.34-1.41.55-.12.05-.23.11-.35.17-.4.2-.78.41-1.15.65-.04.03-36.91,24.31-36.91,24.31v37.15c.35,6.23,5.51,11.2,11.83,11.2.54,0,1.06-.05,1.58-.12.13-.02.27-.04.4-.06.47-.08.94-.18,1.39-.32.04-.01.08-.02.12-.03.48-.15.95-.34,1.41-.55.12-.05.23-.11.35-.17.4-.2.78-.41,1.15-.65.04-.03.09-.05.13-.08l36.77-24.24v-37.15c-.35-6.23-5.51-11.2-11.83-11.2Z"/><path class="cls-1" d="M45.89,146.12c0,6.54,5.32,11.86,11.86,11.86h53.65s.04,0,.04,0v-32.89l-56.23,9.44c-5.33,1.17-9.33,5.91-9.33,11.58Z"/><path class="cls-1" d="M161.88,115.76c-.11-.06-.23-.11-.35-.17-.46-.21-.92-.4-1.41-.55-.04-.01-.08-.02-.12-.03-.45-.13-.92-.24-1.39-.32-.13-.02-.26-.04-.4-.06-.52-.07-1.04-.12-1.58-.12-6.32,0-11.48,4.97-11.83,11.2v37.15l36.77,24.24s.09.05.13.08c.37.24.76.45,1.15.65.11.06.23.11.35.17.46.21.92.4,1.41.55.04.01.08.02.12.03.45.13.92.24,1.39.32.13.02.26.04.4.06.52.07,1.04.12,1.58.12,6.32,0,11.48-4.97,11.83-11.2v-37.15s-36.86-24.29-36.91-24.31c-.37-.24-.75-.45-1.15-.65Z"/><path class="cls-1" d="M127.36,191.32h-53.65s-.04,0-.04,0v32.89l56.23-9.44c5.33-1.17,9.33-5.91,9.33-11.58,0-6.54-5.32-11.86-11.86-11.86Z"/><path class="cls-1" d="M286.96,99.58h-53.65s-.04,0-.04,0v32.89l56.23-9.44c5.33-1.17,9.33-5.91,9.33-11.58,0-6.54-5.32-11.86-11.86-11.86Z"/><path class="cls-1" d="M174.33,10.62C83.91,10.62,10.62,83.91,10.62,174.33s73.3,163.72,163.72,163.72,163.72-73.3,163.72-163.72S264.75,10.62,174.33,10.62ZM56.86,168.58c-.32-.01-.64-.03-.95-.06-1.23-.11-2.44-.32-3.61-.61-9.75-2.46-16.99-11.28-16.99-21.78,0-6.28,2.6-11.97,6.77-16.05,2.97-2.91,6.75-5.01,10.96-5.92l58.42-9.8v-25.37h10.6v79.6H56.86ZM143.04,219.23c-2.97,2.91-6.75,5.01-10.96,5.92l-58.42,9.8v25.37h-10.6v-79.6h65.18c.32.01.64.03.95.06,1.23.11,2.44.32,3.61.61,9.75,2.46,16.99,11.28,16.99,21.78,0,6.28-2.6,11.97-6.77,16.05ZM179.91,287.29h-10.6v-79.6h10.6v79.6ZM210.54,177.64c-.14,7.86-4.35,14.73-10.6,18.63-1.95,1.22-4.09,2.16-6.38,2.73-1.76.45-3.6.71-5.5.71-4.23,0-8.18-1.2-11.57-3.24l-42.29-27.89v-42.62c.14-7.86,4.35-14.73,10.6-18.63,1.95-1.22,4.09-2.16,6.38-2.73,1.76-.45,3.6-.71,5.5-.71,4.23,0,8.18,1.2,11.57,3.24l42.29,27.89v42.62ZM289.04,235.26l-42.29,27.89c-3.39,2.04-7.34,3.24-11.57,3.24-1.9,0-3.73-.26-5.5-.71-2.29-.58-4.43-1.52-6.38-2.73-6.25-3.9-10.45-10.77-10.6-18.63v-42.62l42.29-27.89c3.39-2.04,7.34-3.24,11.57-3.24,1.9,0,3.73.26,5.5.71,2.29.58,4.43,1.52,6.38,2.73,6.25,3.9,10.46,10.77,10.6,18.63v42.62ZM291.69,133.41l-58.42,9.8v25.37h-10.6v-79.6h65.18c.32.01.64.03.95.06,1.23.11,2.44.32,3.61.61,9.75,2.46,16.99,11.28,16.99,21.78,0,6.28-2.6,11.97-6.77,16.05-2.97,2.91-6.75,5.01-10.96,5.92Z"/></svg>