<?xml version="1.0" encoding="UTF-8"?><svg id="Calque_1" xmlns="http://www.w3.org/2000/svg" viewBox="0 0 487.56 487.56"><defs><style>.cls-1{fill:blue;}</style></defs><path class="cls-1" d="M115.2,388.4h-2.46v3.79h2.46c1.28,0,1.87-.71,1.87-1.87s-.57-1.92-1.87-1.92Z"/><path class="cls-1" d="M375.37,388.4h-2.46v3.79h2.46c1.28,0,1.87-.71,1.87-1.87s-.57-1.92-1.87-1.92Z"/><path class="cls-1" d="M229.53,124.81c-.15-.08-.31-.15-.46-.22-.61-.28-1.23-.53-1.88-.73-.05-.02-.11-.03-.16-.04-.6-.18-1.23-.31-1.86-.42-.18-.03-.35-.06-.53-.08-.69-.09-1.39-.16-2.11-.16-8.44,0-15.34,6.64-15.8,14.96v49.61l49.1,32.36c.06.04.12.06.18.1.49.32,1.01.6,1.54.87.15.08.31.15.46.22.61.28,1.23.53,1.88.73.05.02.11.03.16.04.6.18,1.23.31,1.86.42.18.03.35.06.53.08.69.09,1.39.16,2.11.16,8.44,0,15.34-6.64,15.8-14.96v-49.61s-49.22-32.43-49.28-32.47c-.49-.32-1.01-.6-1.54-.87Z"/><path class="cls-1" d="M385.16,227.15c-.46-8.32-7.36-14.96-15.8-14.96-.72,0-1.42.06-2.11.16-.18.02-.35.05-.53.08-.63.11-1.25.24-1.86.42-.05.02-.11.02-.16.04-.65.2-1.27.45-1.88.73-.16.07-.31.15-.46.22-.53.26-1.04.55-1.54.87-.06.04-49.28,32.47-49.28,32.47v49.61c.46,8.32,7.36,14.96,15.8,14.96.72,0,1.42-.06,2.11-.16.18-.02.36-.05.53-.08.63-.11,1.25-.24,1.86-.42.05-.02.11-.02.16-.04.65-.2,1.27-.45,1.88-.73.16-.07.31-.15.46-.22.53-.26,1.04-.55,1.54-.87.06-.04.12-.06.18-.1l49.1-32.36v-49.61Z"/><path class="cls-1" d="M183.43,225.7h-71.64s-.06,0-.06,0v43.92l75.08-12.6c7.11-1.56,12.46-7.9,12.46-15.47,0-8.73-7.11-15.84-15.84-15.84Z"/><path class="cls-1" d="M396.54,103.21h-71.64s-.06,0-.06,0v43.92l75.08-12.6c7.11-1.56,12.46-7.9,12.46-15.47,0-8.73-7.11-15.84-15.84-15.84Z"/><path class="cls-1" d="M162.12,181.19h.06v-43.92l-75.08,12.61c-7.11,1.56-12.46,7.9-12.46,15.47,0,8.73,7.11,15.84,15.84,15.84h71.64Z"/><path class="cls-1" d="M0,.13v487.03h487.03V.13H0ZM60.51,165.36c0-8.39,3.47-15.98,9.03-21.43,3.97-3.89,9.01-6.68,14.63-7.9l78.01-13.09v-33.88h14.15v106.29h-87.04c-.43-.02-.85-.05-1.27-.08-1.65-.15-3.26-.42-4.83-.82-13.02-3.29-22.69-15.06-22.69-29.09ZM88.41,401.36l-.81-2.39h-6.7l-.81,2.39h-4.98l6.48-17.24h5.39l6.48,17.24h-5.05ZM117.13,401.36l-3.05-5.39h-1.33v5.39h-4.73v-17.24h6.9c4.44,0,7,2.34,7,5.96,0,2.29-1.06,4.09-3.05,4.95l3.87,6.33h-5.59ZM145.37,401.7c-5.17,0-8.96-3.65-8.96-9.02s3.79-8.92,8.96-8.92c3.97,0,6.92,2.19,8.08,5.05l-4.68,1.26c-.94-1.43-2.29-1.85-3.65-1.85-2.46,0-3.97,1.87-3.97,4.51s1.6,4.51,3.97,4.51c2.09,0,3.28-1.11,3.84-2.29l4.66,1.23c-1.28,3.4-4.48,5.52-8.25,5.52ZM183.71,401.36h-4.73v-6.43h-5.84v6.43h-4.73v-17.24h4.73v6.28h5.84v-6.28h4.73v17.24ZM203.98,401.36h-4.73v-17.24h4.73v17.24ZM204.37,262.97c-3.97,3.89-9.01,6.68-14.63,7.9l-78.01,13.09v33.88h-14.15v-106.29h87.04c.43.02.85.05,1.27.09,1.65.15,3.26.42,4.83.82,13.02,3.29,22.69,15.06,22.69,29.09,0,8.39-3.47,15.98-9.03,21.43ZM233.89,388.5h-5.08v12.86h-4.73v-12.86h-5.07v-4.38h14.88v4.38ZM261.91,401.36h-12.98v-17.24h12.83v4.38h-8.1v2.24h5.86v3.94h-5.86v2.29h8.25v4.38ZM239.44,353.85v-106.29h14.15v106.29h-14.15ZM285.05,401.7c-5.17,0-8.96-3.65-8.96-9.02s3.79-8.92,8.96-8.92c3.97,0,6.92,2.19,8.08,5.05l-4.68,1.26c-.94-1.43-2.29-1.85-3.65-1.85-2.46,0-3.97,1.87-3.97,4.51s1.6,4.51,3.97,4.51c2.09,0,3.28-1.11,3.84-2.29l4.66,1.23c-1.28,3.4-4.48,5.52-8.25,5.52ZM294.5,207.44c-.19,10.5-5.8,19.67-14.15,24.88-2.6,1.62-5.46,2.88-8.51,3.65-2.35.59-4.8.94-7.34.94-5.65,0-10.93-1.6-15.45-4.33l-56.47-37.24v-56.91c.19-10.5,5.8-19.67,14.15-24.88,2.6-1.62,5.46-2.88,8.51-3.65,2.35-.59,4.8-.94,7.34-.94,5.65,0,10.93,1.6,15.45,4.33l56.47,37.24v56.91ZM322.49,388.5h-5.08v12.86h-4.73v-12.86h-5.07v-4.38h14.88v4.38ZM320.05,325c-3.05-.77-5.91-2.02-8.51-3.65-8.35-5.21-13.96-14.38-14.15-24.88v-56.91l56.47-37.24c4.52-2.73,9.8-4.33,15.45-4.33,2.54,0,4.99.35,7.34.94,3.05.77,5.91,2.02,8.51,3.65,8.35,5.21,13.96,14.38,14.15,24.88v56.91l-56.47,37.24c-4.52,2.73-9.8,4.33-15.45,4.33-2.54,0-4.99-.35-7.34-.94ZM352.77,393.55c0,5.27-3.18,8.15-7.68,8.15s-7.68-2.88-7.68-8.15v-9.43h4.78v9.26c0,2.73,1.03,3.87,2.96,3.87s2.96-1.13,2.96-3.87v-9.26h4.68v9.43ZM377.3,401.36l-3.05-5.39h-1.33v5.39h-4.73v-17.24h6.9c4.44,0,7,2.34,7,5.96,0,2.29-1.06,4.09-3.05,4.95l3.87,6.33h-5.59ZM410.42,401.36h-12.98v-17.24h12.83v4.38h-8.1v2.24h5.86v3.94h-5.86v2.29h8.25v4.38ZM417.48,140.48c-3.97,3.89-9.01,6.68-14.63,7.9l-78.01,13.09v33.88h-14.15v-106.29h87.04c.43.02.85.05,1.27.08,1.65.15,3.26.42,4.83.82,13.02,3.29,22.69,15.06,22.69,29.09,0,8.39-3.47,15.98-9.03,21.43Z"/><path class="cls-1" d="M84.3,389.44h-.1s-.25.69-.74,2.09l-1.09,3.15h3.74l-1.08-3.13c-.49-1.4-.71-2.09-.74-2.12Z"/></svg>