<?xml version="1.0" encoding="UTF-8"?><svg id="Calque_1" xmlns="http://www.w3.org/2000/svg" viewBox="0 0 382.68 297.64"><defs><style>.cls-1{fill:blue;}</style></defs><rect class="cls-1" x="187.27" y="174.93" width="14.15" height="106.29"/><path class="cls-1" d="M351.65,17.32c-1.57-.4-3.18-.67-4.83-.82-.42-.04-.84-.07-1.27-.08h-87.04v106.29h14.15v-33.88l78.01-13.09c5.62-1.22,10.66-4.01,14.63-7.9,5.57-5.45,9.03-13.04,9.03-21.43,0-14.02-9.67-25.8-22.69-29.09ZM347.75,61.89l-75.08,12.61V30.57h71.7c8.73,0,15.84,7.11,15.84,15.84,0,7.57-5.34,13.91-12.46,15.47Z"/><path class="cls-1" d="M138.54,139.81c-1.57-.4-3.18-.67-4.83-.82-.42-.04-.84-.07-1.27-.08H45.41v106.29h14.15v-33.88l78.01-13.09c5.62-1.22,10.66-4.01,14.63-7.9,5.57-5.45,9.03-13.04,9.03-21.43,0-14.02-9.67-25.8-22.69-29.09ZM134.64,184.37l-75.08,12.61v-43.92h71.7c8.73,0,15.84,7.11,15.84,15.84,0,7.57-5.34,13.91-12.46,15.47Z"/><path class="cls-1" d="M31.03,121.81c1.57.4,3.18.67,4.83.82.42.04.84.07,1.27.08h87.04V16.42h-14.15v33.88l-78.01,13.09c-5.62,1.22-10.66,4.01-14.63,7.9-5.57,5.45-9.03,13.04-9.03,21.43,0,14.02,9.67,25.8,22.69,29.09ZM34.93,77.25l75.08-12.61v43.92H38.31c-8.73,0-15.84-7.11-15.84-15.84,0-7.57,5.34-13.91,12.46-15.47Z"/><path class="cls-1" d="M185.85,40.65c-4.52-2.73-9.8-4.33-15.45-4.33-2.54,0-4.99.35-7.34.94-3.05.77-5.91,2.02-8.51,3.65-8.35,5.21-13.96,14.38-14.15,24.88v56.91l56.47,37.24c4.52,2.73,9.8,4.33,15.45,4.33,2.54,0,4.99-.35,7.34-.94,3.05-.77,5.91-2.02,8.51-3.65,8.35-5.21,13.96-14.38,14.15-24.88v-56.91l-56.47-37.24ZM228.17,135.12c-.46,8.32-7.36,14.96-15.8,14.96-.72,0-1.42-.06-2.11-.16-.18-.02-.36-.05-.53-.08-.63-.11-1.25-.24-1.86-.42-.05-.02-.11-.02-.16-.04-.65-.2-1.27-.45-1.88-.73-.16-.07-.31-.15-.46-.22-.53-.26-1.04-.55-1.54-.87-.06-.04-.12-.06-.18-.1l-49.1-32.36v-49.61c.46-8.32,7.36-14.96,15.8-14.96.72,0,1.42.06,2.11.16.18.02.35.05.53.08.63.11,1.25.24,1.86.42.05.02.11.03.16.04.65.2,1.27.45,1.88.73.16.07.31.15.46.22.53.26,1.04.55,1.54.87.06.04,49.28,32.47,49.28,32.47v49.61Z"/><path class="cls-1" d="M245.21,166.93v56.91c.19,10.5,5.8,19.67,14.15,24.88,2.6,1.62,5.46,2.88,8.51,3.65,2.35.59,4.8.94,7.34.94,5.65,0,10.93-1.6,15.45-4.33l56.47-37.24v-56.91c-.19-10.5-5.8-19.67-14.15-24.88-2.6-1.62-5.46-2.88-8.51-3.65-2.35-.59-4.8-.94-7.34-.94-5.65,0-10.93,1.6-15.45,4.33l-56.47,37.24ZM259.37,174.54s49.22-32.43,49.28-32.47c.49-.32,1.01-.6,1.54-.87.15-.08.31-.15.46-.22.61-.28,1.23-.53,1.88-.73.05-.02.11-.03.16-.04.6-.18,1.23-.31,1.86-.42.18-.03.35-.06.53-.08.69-.09,1.39-.16,2.11-.16,8.44,0,15.34,6.64,15.8,14.96v49.61s-49.1,32.36-49.1,32.36c-.06.04-.12.06-.18.1-.49.32-1.01.6-1.54.87-.15.08-.31.15-.46.22-.61.28-1.23.53-1.88.73-.05.02-.11.03-.16.04-.6.18-1.23.31-1.86.42-.18.03-.35.06-.53.08-.69.09-1.39.16-2.11.16-8.44,0-15.34-6.64-15.8-14.96v-49.61Z"/></svg>