<?xml version="1.0" encoding="UTF-8"?><svg id="Calque_1" xmlns="http://www.w3.org/2000/svg" viewBox="0 0 379.84 379.84"><defs><style>.cls-1{fill:currentColor;}</style></defs><path class="cls-1" d="M104.28,264.63c10.74-2.35,18.82-11.93,18.82-23.37,0-13.19-10.73-23.93-23.93-23.93H10.93s0,62.97,0,62.97l93.34-15.67Z"/><polygon class="cls-1" points="67.07 10.93 10.93 10.93 10.93 71.51 67.07 62.1 67.07 10.93"/><polygon class="cls-1" points="66.98 150.1 67.07 150.1 67.07 83.76 10.93 93.18 10.93 150.1 66.98 150.1"/><path class="cls-1" d="M367.12,200.74c-.09.06-74.44,49.04-74.44,49.04v74.94c.7,12.58,11.12,22.6,23.86,22.6,1.08,0,2.14-.1,3.19-.24.27-.04.54-.08.8-.12.95-.16,1.89-.37,2.81-.64.08-.02.16-.04.24-.06.98-.3,1.92-.68,2.84-1.1.24-.11.47-.22.7-.34.8-.4,1.58-.83,2.32-1.31.09-.06.18-.1.27-.15l39.19-25.83v-117.8c-.61.32-1.21.64-1.79,1.01Z"/><polygon class="cls-1" points="312.78 32.3 312.78 98.64 368.91 89.21 368.91 32.3 312.87 32.3 312.78 32.3"/><path class="cls-1" d="M312.78,171.48h-21.38V10.93H88.45v160.55H10.93v24.47h90.02c.64.03,1.28.07,1.92.13,2.49.22,4.92.64,7.29,1.23,19.66,4.97,34.28,22.75,34.28,43.94,0,12.67-5.24,24.14-13.65,32.37-6,5.88-13.61,10.1-22.1,11.94l-97.76,16.4v66.94h172.84v-118.56h21.38v118.56h163.76v-25.77l-28.94,19.09c-6.83,4.12-14.8,6.54-23.34,6.54-3.83,0-7.53-.53-11.09-1.43-4.61-1.16-8.93-3.06-12.86-5.51-12.61-7.87-21.09-21.72-21.38-37.59v-85.97l85.3-56.26c3.78-2.28,7.92-4.02,12.31-5.13v-66l-56.13,9.42v51.18ZM266.94,189.75c-.29,15.86-8.77,29.72-21.38,37.59-3.93,2.45-8.25,4.35-12.86,5.51-3.56.9-7.26,1.43-11.09,1.43-8.54,0-16.51-2.42-23.34-6.54l-85.3-56.26v-85.97c.29-15.86,8.77-29.72,21.38-37.59,3.93-2.45,8.25-4.35,12.86-5.51,3.56-.9,7.26-1.43,11.09-1.43,8.54,0,16.51,2.42,23.34,6.54l85.3,56.26v85.97Z"/><path class="cls-1" d="M168.79,64.93c-.23-.12-.46-.23-.7-.34-.92-.42-1.86-.8-2.84-1.1-.08-.02-.16-.04-.24-.06-.91-.27-1.85-.48-2.81-.64-.27-.05-.53-.09-.8-.12-1.05-.14-2.11-.24-3.19-.24-12.75,0-23.17,10.02-23.86,22.6v74.94l74.17,48.89c.09.06.18.1.27.15.75.48,1.52.91,2.32,1.31.23.12.46.23.7.34.92.42,1.86.8,2.84,1.1.08.03.16.04.24.06.91.27,1.85.48,2.81.64.27.05.53.09.8.12,1.05.14,2.11.24,3.19.24,12.75,0,23.17-10.02,23.86-22.6v-74.94s-74.36-48.99-74.44-49.04c-.75-.48-1.52-.91-2.32-1.31Z"/></svg>