<?xml version="1.0" encoding="UTF-8"?><svg id="Calque_1" xmlns="http://www.w3.org/2000/svg" viewBox="0 0 694.49 240.94"><defs><style>.cls-1{fill:currentColor;}</style></defs><path class="cls-1" d="M281.77,194.96l-5.29,14.07h4.06l.66-1.95h5.47l.66,1.95h4.12l-5.29-14.07h-4.4ZM282.41,203.58l.89-2.57c.4-1.15.58-1.69.6-1.71h.08s.2.58.6,1.73l.88,2.55h-3.06Z"/><path class="cls-1" d="M314.65,199.82c0-2.95-2.09-4.86-5.71-4.86h-5.63v14.07h3.86v-4.4h1.08l2.49,4.4h4.56l-3.16-5.16c1.63-.7,2.49-2.17,2.49-4.04ZM309.19,201.55h-2.01v-3.1h2.01c1.07,0,1.53.62,1.53,1.57s-.48,1.53-1.53,1.53Z"/><path class="cls-1" d="M333.6,205.67c-1.93,0-3.24-1.47-3.24-3.68s1.23-3.68,3.24-3.68c1.11,0,2.21.34,2.97,1.51l3.82-1.02c-.94-2.33-3.36-4.12-6.59-4.12-4.22,0-7.31,3.03-7.31,7.27s3.09,7.35,7.31,7.35c3.07,0,5.69-1.73,6.73-4.5l-3.8-1.01c-.46.97-1.43,1.87-3.13,1.87Z"/><polygon class="cls-1" points="361.22 200.08 356.46 200.08 356.46 194.96 352.6 194.96 352.6 209.02 356.46 209.02 356.46 203.78 361.22 203.78 361.22 209.02 365.08 209.02 365.08 194.96 361.22 194.96 361.22 200.08"/><rect class="cls-1" x="377.75" y="194.96" width="3.86" height="14.07"/><polygon class="cls-1" points="393.87 198.53 398.01 198.53 398.01 209.02 401.87 209.02 401.87 198.53 406.01 198.53 406.01 194.96 393.87 194.96 393.87 198.53"/><polygon class="cls-1" points="422.14 203.58 426.92 203.58 426.92 200.36 422.14 200.36 422.14 198.53 428.75 198.53 428.75 194.96 418.28 194.96 418.28 209.02 428.87 209.02 428.87 205.45 422.14 205.45 422.14 203.58"/><path class="cls-1" d="M447.55,205.67c-1.93,0-3.24-1.47-3.24-3.68s1.23-3.68,3.24-3.68c1.11,0,2.21.34,2.97,1.51l3.82-1.02c-.94-2.33-3.36-4.12-6.59-4.12-4.22,0-7.31,3.03-7.31,7.27s3.09,7.35,7.31,7.35c3.07,0,5.69-1.73,6.73-4.5l-3.8-1.01c-.46.97-1.43,1.87-3.13,1.87Z"/><polygon class="cls-1" points="466.15 198.53 470.29 198.53 470.29 209.02 474.15 209.02 474.15 198.53 478.29 198.53 478.29 194.96 466.15 194.96 466.15 198.53"/><path class="cls-1" d="M499.18,202.51c0,2.23-.84,3.16-2.41,3.16s-2.41-.92-2.41-3.16v-7.56h-3.9v7.7c0,4.3,2.57,6.65,6.27,6.65s6.27-2.35,6.27-6.65v-7.7h-3.82v7.56Z"/><path class="cls-1" d="M526.9,199.82c0-2.95-2.09-4.86-5.71-4.86h-5.63v14.07h3.86v-4.4h1.08l2.49,4.4h4.56l-3.16-5.16c1.63-.7,2.49-2.17,2.49-4.04ZM521.44,201.55h-2.01v-3.1h2.01c1.07,0,1.53.62,1.53,1.57s-.48,1.53-1.53,1.53Z"/><polygon class="cls-1" points="543.29 203.58 548.08 203.58 548.08 200.36 543.29 200.36 543.29 198.53 549.9 198.53 549.9 194.96 539.44 194.96 539.44 209.02 550.02 209.02 550.02 205.45 543.29 205.45 543.29 203.58"/><rect class="cls-1" x="535.88" y="67.38" width="14.14" height="106.19"/><path class="cls-1" d="M369.4,68.28c-1.56-.4-3.18-.67-4.82-.82-.42-.04-.84-.07-1.27-.08h-86.95v106.19h14.14v-33.85l77.93-13.07c5.62-1.22,10.65-4.01,14.62-7.9,5.56-5.45,9.02-13.03,9.02-21.41,0-14.01-9.67-25.77-22.67-29.06ZM365.51,112.8l-75.01,12.59v-43.88h71.63c8.73,0,15.83,7.1,15.83,15.83,0,7.57-5.34,13.9-12.44,15.45Z"/><path class="cls-1" d="M499.17,68.28c-1.56-.4-3.18-.67-4.82-.82-.42-.04-.84-.07-1.27-.08h-86.95v106.19h14.14v-33.85l77.93-13.07c5.62-1.22,10.65-4.01,14.62-7.9,5.56-5.45,9.02-13.03,9.02-21.41,0-14.01-9.67-25.77-22.67-29.06ZM495.28,112.8l-75.01,12.59v-43.88h71.63c8.73,0,15.83,7.1,15.83,15.83,0,7.57-5.34,13.9-12.44,15.45Z"/><path class="cls-1" d="M49.09,172.67c1.56.4,3.18.67,4.82.82.42.04.84.07,1.27.08h86.95v-106.19h-14.14v33.85l-77.93,13.07c-5.62,1.22-10.65,4.01-14.62,7.9-5.56,5.45-9.02,13.03-9.02,21.41,0,14.01,9.67,25.77,22.67,29.06ZM52.98,128.15l75.01-12.59v43.88H56.36c-8.73,0-15.83-7.1-15.83-15.83,0-7.57,5.34-13.9,12.44-15.45Z"/><path class="cls-1" d="M203.76,91.59c-4.52-2.72-9.79-4.32-15.43-4.32-2.53,0-4.98.35-7.33.94-3.05.77-5.91,2.02-8.51,3.65-8.34,5.2-13.95,14.37-14.14,24.86v56.86l56.42,37.21c4.52,2.72,9.79,4.32,15.43,4.32,2.53,0,4.98-.35,7.33-.94,3.05-.77,5.91-2.02,8.51-3.65,8.34-5.2,13.95-14.37,14.14-24.86v-56.86l-56.42-37.21ZM246.04,185.97c-.46,8.32-7.35,14.95-15.78,14.95-.72,0-1.42-.06-2.11-.16-.18-.02-.35-.05-.53-.08-.63-.11-1.25-.24-1.86-.42-.05-.02-.11-.02-.16-.04-.65-.2-1.27-.45-1.88-.73-.16-.07-.31-.15-.46-.22-.53-.26-1.04-.55-1.54-.87-.06-.04-.12-.06-.18-.1l-49.05-32.33v-49.56c.46-8.32,7.35-14.95,15.78-14.95.72,0,1.42.06,2.11.16.18.02.35.05.53.08.63.11,1.25.24,1.86.42.05.02.11.03.16.04.65.2,1.27.45,1.88.73.16.07.31.15.46.22.53.26,1.04.55,1.54.87.06.04,49.23,32.44,49.23,32.44v49.56Z"/><path class="cls-1" d="M566.24,67.38v56.86c.19,10.49,5.8,19.65,14.14,24.86,2.6,1.62,5.46,2.88,8.51,3.65,2.35.59,4.8.94,7.33.94,5.65,0,10.92-1.6,15.43-4.32l56.42-37.21v-56.86c-.19-10.49-5.8-19.65-14.14-24.86-2.6-1.62-5.46-2.88-8.51-3.65-2.35-.59-4.8-.94-7.33-.94-5.65,0-10.92,1.6-15.43,4.32l-56.42,37.21ZM580.38,74.99s49.18-32.4,49.23-32.44c.49-.32,1.01-.6,1.54-.87.15-.08.31-.15.46-.22.61-.28,1.23-.53,1.88-.73.05-.02.11-.03.16-.04.6-.18,1.22-.31,1.86-.42.18-.03.35-.06.53-.08.69-.09,1.39-.16,2.11-.16,8.43,0,15.32,6.63,15.78,14.95v49.56s-49.05,32.33-49.05,32.33c-.06.04-.12.06-.18.1-.49.32-1.01.6-1.54.87-.15.08-.31.15-.46.22-.61.28-1.23.53-1.88.73-.05.02-.11.03-.16.04-.6.18-1.22.31-1.86.42-.18.03-.35.06-.53.08-.69.09-1.39.16-2.11.16-8.43,0-15.32-6.63-15.78-14.95v-49.56Z"/></svg>